<mxfile host="app.diagrams.net" modified="2021-11-26T22:41:36.296Z" agent="5.0 (Windows NT 10.0; WOW64) AppleWebKit/537.36 (KHTML, like Gecko) Chrome/96.0.4664.45 Safari/537.36" etag="_f-_iWyf99fm3_pKu22I" version="15.8.3" type="github">
  <diagram name="Page-1" id="929967ad-93f9-6ef4-fab6-5d389245f69c">
    <mxGraphModel dx="1292" dy="696" grid="1" gridSize="10" guides="1" tooltips="1" connect="1" arrows="1" fold="1" page="1" pageScale="1.5" pageWidth="1169" pageHeight="826" background="none" math="0" shadow="0">
      <root>
        <mxCell id="0" style=";html=1;" />
        <mxCell id="1" style=";html=1;" parent="0" />
        <mxCell id="1672d66443f91eb5-1" value="&lt;p style=&quot;margin: 0px ; margin-top: 4px ; margin-left: 10px ; text-align: left&quot;&gt;&lt;b&gt;bbd&lt;/b&gt;[block] Concept Block definition[AC Concept structure]&lt;/p&gt;" style="html=1;strokeWidth=1;shape=mxgraph.sysml.package;html=1;overflow=fill;whiteSpace=wrap;fillColor=none;gradientColor=none;fontSize=12;align=center;labelX=327.64;" parent="1" vertex="1">
          <mxGeometry x="315" y="295" width="955" height="485" as="geometry" />
        </mxCell>
        <mxCell id="UlCgKMU-R_BX_2DzG77N-10" style="edgeStyle=orthogonalEdgeStyle;rounded=0;orthogonalLoop=1;jettySize=auto;html=1;fontSize=11;endArrow=open;endFill=0;startArrow=diamondThin;startFill=1;" edge="1" parent="1" source="UlCgKMU-R_BX_2DzG77N-7" target="UlCgKMU-R_BX_2DzG77N-8">
          <mxGeometry relative="1" as="geometry">
            <Array as="points">
              <mxPoint x="650" y="585" />
              <mxPoint x="550" y="585" />
            </Array>
          </mxGeometry>
        </mxCell>
        <mxCell id="UlCgKMU-R_BX_2DzG77N-12" value="1" style="edgeLabel;html=1;align=center;verticalAlign=middle;resizable=0;points=[];fontSize=11;" vertex="1" connectable="0" parent="UlCgKMU-R_BX_2DzG77N-10">
          <mxGeometry x="-0.448" y="3" relative="1" as="geometry">
            <mxPoint x="7" y="-38" as="offset" />
          </mxGeometry>
        </mxCell>
        <mxCell id="UlCgKMU-R_BX_2DzG77N-11" style="edgeStyle=orthogonalEdgeStyle;rounded=0;orthogonalLoop=1;jettySize=auto;html=1;exitX=0.873;exitY=1.048;exitDx=0;exitDy=0;fontSize=11;startArrow=diamondThin;startFill=1;endArrow=open;endFill=0;exitPerimeter=0;" edge="1" parent="1" source="UlCgKMU-R_BX_2DzG77N-7" target="UlCgKMU-R_BX_2DzG77N-9">
          <mxGeometry relative="1" as="geometry" />
        </mxCell>
        <mxCell id="UlCgKMU-R_BX_2DzG77N-7" value="&lt;p style=&quot;margin: 13px&quot;&gt;&lt;font style=&quot;font-size: 11px&quot;&gt;&amp;lt;&amp;lt;block&amp;gt;&amp;gt;&lt;/font&gt;&lt;/p&gt;&lt;p style=&quot;margin: 13px&quot;&gt;&lt;span style=&quot;font-size: 11px&quot;&gt;&lt;b&gt;Simulador - Ar condicionado Veicular Educacional&lt;/b&gt;&lt;/span&gt;&lt;/p&gt;" style="shape=rect;html=1;overflow=fill;whiteSpace=wrap;align=center;" vertex="1" parent="1">
          <mxGeometry x="630" y="410" width="300" height="90" as="geometry" />
        </mxCell>
        <mxCell id="UlCgKMU-R_BX_2DzG77N-8" value="&lt;p style=&quot;margin: 13px&quot;&gt;&lt;font style=&quot;font-size: 11px&quot;&gt;&amp;lt;&amp;lt;block&amp;gt;&amp;gt;&lt;/font&gt;&lt;/p&gt;&lt;p style=&quot;margin: 13px&quot;&gt;&lt;b&gt;Unidade de Conforto térmico&lt;/b&gt;&lt;/p&gt;" style="shape=rect;html=1;overflow=fill;whiteSpace=wrap;align=center;" vertex="1" parent="1">
          <mxGeometry x="450" y="610" width="300" height="90" as="geometry" />
        </mxCell>
        <mxCell id="UlCgKMU-R_BX_2DzG77N-9" value="&lt;p style=&quot;margin: 13px&quot;&gt;&lt;font style=&quot;font-size: 11px&quot;&gt;&amp;lt;&amp;lt;block&amp;gt;&amp;gt;&lt;/font&gt;&lt;/p&gt;&lt;p style=&quot;margin: 13px&quot;&gt;&lt;b&gt;Interface com o usuário&lt;/b&gt;&lt;/p&gt;" style="shape=rect;html=1;overflow=fill;whiteSpace=wrap;align=center;" vertex="1" parent="1">
          <mxGeometry x="820" y="619" width="300" height="90" as="geometry" />
        </mxCell>
        <mxCell id="UlCgKMU-R_BX_2DzG77N-13" value="1" style="edgeLabel;html=1;align=center;verticalAlign=middle;resizable=0;points=[];fontSize=11;" vertex="1" connectable="0" parent="1">
          <mxGeometry x="560" y="600" as="geometry" />
        </mxCell>
        <mxCell id="UlCgKMU-R_BX_2DzG77N-16" value="1" style="edgeLabel;html=1;align=center;verticalAlign=middle;resizable=0;points=[];fontSize=11;" vertex="1" connectable="0" parent="1">
          <mxGeometry x="600" y="610" as="geometry">
            <mxPoint x="361" y="-4" as="offset" />
          </mxGeometry>
        </mxCell>
        <mxCell id="UlCgKMU-R_BX_2DzG77N-17" value="1" style="edgeLabel;html=1;align=center;verticalAlign=middle;resizable=0;points=[];fontSize=11;" vertex="1" connectable="0" parent="1">
          <mxGeometry x="520" y="520" as="geometry">
            <mxPoint x="361" y="-4" as="offset" />
          </mxGeometry>
        </mxCell>
      </root>
    </mxGraphModel>
  </diagram>
</mxfile>
